<?xml version="1.0" encoding="UTF-8" standalone="no"?>
<!-- Created with Inkscape (http://www.inkscape.org/) -->

<svg
   xmlns:dc="http://purl.org/dc/elements/1.1/"
   xmlns:cc="http://creativecommons.org/ns#"
   xmlns:rdf="http://www.w3.org/1999/02/22-rdf-syntax-ns#"
   xmlns:svg="http://www.w3.org/2000/svg"
   xmlns="http://www.w3.org/2000/svg"
   xmlns:sodipodi="http://sodipodi.sourceforge.net/DTD/sodipodi-0.dtd"
   xmlns:inkscape="http://www.inkscape.org/namespaces/inkscape"
   width="1596.9366mm"
   height="194.80887mm"
   viewBox="0 0 1596.9367 194.80888"
   version="1.1"
   id="svg8"
   sodipodi:docname="pelnimre-blabi_lerfu.svg"
   inkscape:version="0.92.1 r15371"
   inkscape:export-filename="C:\Users\arkadiy.b\alma.png"
   inkscape:export-xdpi="95.800003"
   inkscape:export-ydpi="95.800003">
  <defs
     id="defs2" />
  <sodipodi:namedview
     id="base"
     pagecolor="#ffffff"
     bordercolor="#666666"
     borderopacity="1.0"
     inkscape:pageopacity="0.0"
     inkscape:pageshadow="2"
     inkscape:zoom="0.12374369"
     inkscape:cx="3216.5482"
     inkscape:cy="375.73949"
     inkscape:document-units="mm"
     inkscape:current-layer="layer1"
     showgrid="false"
     inkscape:window-width="1212"
     inkscape:window-height="777"
     inkscape:window-x="60"
     inkscape:window-y="-8"
     inkscape:window-maximized="1"
     fit-margin-top="0"
     fit-margin-left="0"
     fit-margin-right="0"
     fit-margin-bottom="0" />
  <metadata
     id="metadata5">
    <rdf:RDF>
      <cc:Work
         rdf:about="">
        <dc:format>image/svg+xml</dc:format>
        <dc:type
           rdf:resource="http://purl.org/dc/dcmitype/StillImage" />
        <dc:title />
      </cc:Work>
    </rdf:RDF>
  </metadata>
  <g
     inkscape:label="Layer 1"
     inkscape:groupmode="layer"
     id="layer1"
     transform="translate(-25.021299,-49.829648)">
    <g
       id="g4694"
       transform="translate(6.3199309,1.3639198)">
      <path
         d="m 75.674427,86.732998 c 0,0 3.251719,-12.702375 21.331174,-19.757719 18.079429,-7.055324 30.970319,-3.578624 30.970319,-3.578624 8.02746,1.142108 -5.42888,26.592658 -29.534801,27.678084 -24.10592,1.085387 -22.766692,-3.799028 -22.766692,-4.341741 z"
         id="d"
         style="fill:#64c900;fill-opacity:1;stroke:#000000;stroke-width:4.65899992;stroke-linecap:butt;stroke-linejoin:miter;stroke-miterlimit:4;stroke-dasharray:none;stroke-opacity:1"
         connector-curvature="0"
         inkscape:connector-curvature="0" />
      <path
         inkscape:connector-curvature="0"
         id="path4646"
         d="m 71.79062,234.86782 c -1.111051,-0.60336 -3.254142,-3.12847 -4.76242,-5.61137 -1.508281,-2.48289 -4.162171,-5.80263 -5.897533,-7.37719 C 40.43446,203.10087 34.60694,195.42985 30.04417,180.95874 c -4.56642,-14.48267 -5.29541,-29.89233 -2.01805,-42.6581 1.96945,-7.67131 7.36776,-18.02727 12.25624,-23.51202 4.425109,-4.96486 23.50689,-19.55146 28.554693,-21.82794 4.254315,-1.918626 9.716094,-1.466948 14.886234,1.231069 6.73561,3.514948 23.089823,16.492301 27.284003,21.650321 10.42732,12.82359 15.26802,30.43356 13.09734,47.64681 -1.86829,14.81539 -6.17476,26.75001 -13.20988,36.60884 -1.86518,2.61381 -8.17232,9.27539 -14.015883,14.80349 -5.84355,5.52811 -11.84464,11.88912 -13.33575,14.13556 -2.66549,4.01573 -6.36644,7.00952 -8.59847,6.9555 -0.62366,-0.0151 -2.042972,-0.5211 -3.154027,-1.12445 z"
         style="fill:#f6ff00;fill-opacity:1;stroke:#000000;stroke-width:14.56000042;stroke-linecap:round;stroke-linejoin:round;stroke-miterlimit:4;stroke-dasharray:none;stroke-opacity:1;paint-order:stroke fill markers" />
      <path
         d="m 70.009859,89.462492 h 9.814842 c 0,0 -5.284922,-39.846764 -12.079811,-39.846764 -6.794889,0 -6.458467,4.782952 -6.458467,4.782952 0,0 14.763342,24.257912 8.723436,35.063812 z"
         id="b"
         style="fill:#000000;fill-opacity:1;stroke:#000000;stroke-width:2.29999995;stroke-linecap:butt;stroke-linejoin:miter;stroke-miterlimit:4;stroke-dasharray:none;stroke-opacity:1"
         connector-curvature="0"
         inkscape:connector-curvature="0" />
    </g>
    <g
       aria-label="ALMAVLASTE"
       style="font-style:normal;font-weight:normal;font-size:10.58333302px;line-height:1.25;font-family:sans-serif;letter-spacing:0px;word-spacing:0px;fill:#ffffff;fill-opacity:1;stroke:none;stroke-width:0.26458332"
       id="text4681">
      <path
         d="m 181.32236,173.51749 -2.06706,3.9274 q -13.02246,24.28793 -13.02246,37.62045 0,3.92741 2.99724,7.64811 -2.48047,0.82682 -11.16211,4.03076 -4.03077,1.44694 -7.64812,1.44694 -7.2347,0 -7.2347,-6.92464 0,-14.36605 17.88005,-43.82162 l 3.20394,-5.27099 h -5.271 q -16.94987,0 -26.25163,5.27099 4.85759,-17.46663 26.14828,-17.46663 l 12.81575,0.31006 2.79053,-4.13412 q 16.2264,-24.39127 49.60938,-65.629067 11.26546,-13.952637 16.84652,-17.363282 5.58105,-3.410644 21.60074,-6.201172 -2.99723,18.603516 -2.99723,34.623211 0,42.47803 9.81852,86.09294 5.37435,23.97786 16.43311,30.90251 -9.71517,9.61181 -16.63981,9.61181 -16.32975,0 -25.2181,-56.01725 -17.05322,1.86035 -34.41651,1.86035 z m 7.44141,-12.19564 20.87728,0.51676 q 21.39404,0 32.76286,-1.44694 -4.75424,-36.27686 -4.75424,-60.15137 l 0.10336,-7.751462 q -3.41065,4.34082 -15.29623,18.810222 -21.49739,26.35498 -31.52262,45.99203 z"
         style="font-style:normal;font-variant:normal;font-weight:normal;font-stretch:normal;font-size:211.66667175px;font-family:'Lucida Handwriting';-inkscape-font-specification:'Lucida Handwriting';fill:#ffffff;fill-opacity:1;stroke-width:0.26458332"
         id="path13" />
      <path
         d="m 424.20159,201.83617 q -3.41064,10.12858 -8.06152,14.77946 -4.65088,4.65088 -23.56445,8.06152 -18.81022,3.514 -39.79086,3.514 -32.96956,0 -32.96956,-22.53092 0,-6.30453 3.514,-23.87452 L 343.48301,80.293199 q 1.75699,-8.784993 1.75699,-12.60905 0,-3.513997 -2.48046,-6.51123 13.74593,-5.167644 19.12028,-5.167644 6.40787,0 6.40787,7.338054 0,1.860352 -3.41064,18.190105 l -17.9834,90.640466 q -3.92741,19.53369 -3.92741,27.1818 0,12.91911 28.62875,12.91911 25.52815,0 52.6066,-10.43864 z"
         style="font-style:normal;font-variant:normal;font-weight:normal;font-stretch:normal;font-size:211.66667175px;font-family:'Lucida Handwriting';-inkscape-font-specification:'Lucida Handwriting';fill:#ffffff;fill-opacity:1;stroke-width:0.26458332"
         id="path15" />
      <path
         d="m 479.49539,124.11481 -13.53923,67.90284 q -2.58382,13.12581 -2.58382,20.56722 0,7.75146 6.51123,12.09228 -11.26546,3.514 -17.56999,3.514 -10.54199,0 -10.54199,-8.47493 0,-9.40511 6.20117,-33.38298 l 22.84098,-88.056642 -4.23746,-13.022461 q -7.2347,-21.807455 -14.05599,-26.561687 9.81852,-6.304525 17.46663,-6.304525 5.68441,0 9.71517,8.9917 4.13412,8.888346 14.98617,45.475265 2.17041,7.33805 3.61735,11.57552 l 1.86035,5.16764 q 15.70963,45.78532 27.38851,45.78532 12.7124,0 35.34668,-37.00033 22.73763,-37.103675 24.70133,-60.978187 11.47217,-3.824056 16.94987,-3.824056 10.12859,0 10.12859,11.162109 0,3.720703 -2.37712,20.670574 -2.27376,15.39958 -3.20394,24.70133 l -7.13135,67.38607 q -0.72347,7.13135 -0.72347,13.84929 0,20.56722 8.37159,25.63151 -10.64535,7.44141 -18.19011,7.44141 -12.29899,0 -12.29899,-25.52816 0,-10.23194 1.55029,-25.0114 l 8.9917,-85.47282 q -12.29899,37.00033 -31.72933,63.04525 -19.43034,25.94157 -34.72656,25.94157 -11.98893,0 -23.66781,-17.88004 -11.67887,-17.9834 -20.05045,-49.40268 z"
         style="font-style:normal;font-variant:normal;font-weight:normal;font-stretch:normal;font-size:211.66667175px;font-family:'Lucida Handwriting';-inkscape-font-specification:'Lucida Handwriting';fill:#ffffff;fill-opacity:1;stroke-width:0.26458332"
         id="path17" />
      <path
         d="m 670.38813,173.51749 -2.06706,3.9274 q -13.02246,24.28793 -13.02246,37.62045 0,3.92741 2.99723,7.64811 -2.48047,0.82682 -11.16211,4.03076 -4.03076,1.44694 -7.64811,1.44694 -7.2347,0 -7.2347,-6.92464 0,-14.36605 17.88004,-43.82162 l 3.20394,-5.27099 h -5.27099 q -16.94987,0 -26.25163,5.27099 4.85758,-17.46663 26.14827,-17.46663 l 12.81576,0.31006 2.79053,-4.13412 q 16.2264,-24.39127 49.60937,-65.629067 11.26547,-13.952637 16.84652,-17.363282 5.58106,-3.410644 21.60075,-6.201172 -2.99723,18.603516 -2.99723,34.623211 0,42.47803 9.81852,86.09294 5.37435,23.97786 16.43311,30.90251 -9.71517,9.61181 -16.63982,9.61181 -16.32975,0 -25.2181,-56.01725 -17.05322,1.86035 -34.4165,1.86035 z m 7.4414,-12.19564 20.87728,0.51676 q 21.39405,0 32.76286,-1.44694 -4.75423,-36.27686 -4.75423,-60.15137 l 0.10335,-7.751462 q -3.41064,4.34082 -15.29622,18.810222 -21.4974,26.35498 -31.52263,45.99203 z"
         style="font-style:normal;font-variant:normal;font-weight:normal;font-stretch:normal;font-size:211.66667175px;font-family:'Lucida Handwriting';-inkscape-font-specification:'Lucida Handwriting';fill:#ffffff;fill-opacity:1;stroke-width:0.26458332"
         id="path19" />
      <path
         d="m 828.41469,228.39786 q 1.9637,-11.16211 1.9637,-26.45834 0,-34.51985 -12.40234,-86.40299 Q 812.18829,91.041897 807.84747,82.360257 803.61,73.575263 794.6183,67.890855 q 10.43864,-11.162109 17.25993,-11.162109 13.02246,0 24.80469,41.961264 15.50293,54.88037 15.50293,102.42269 64.9056,-86.71305 64.9056,-118.855796 0,-4.547526 -2.37712,-8.784994 8.68164,-5.891113 17.77669,-5.891113 8.26823,0 8.26823,7.95817 0,13.745932 -17.77669,45.061853 -17.77669,31.21256 -49.19596,72.76042 -16.43311,21.60075 -23.35775,26.97509 -6.82129,5.271 -22.01416,8.06153 z"
         style="font-style:normal;font-variant:normal;font-weight:normal;font-stretch:normal;font-size:211.66667175px;font-family:'Lucida Handwriting';-inkscape-font-specification:'Lucida Handwriting';fill:#ffffff;fill-opacity:1;stroke-width:0.26458332"
         id="path21" />
      <path
         d="m 1055.0675,201.83617 q -3.4106,10.12858 -8.0615,14.77946 -4.6509,4.65088 -23.5645,8.06152 -18.8102,3.514 -39.79083,3.514 -32.96957,0 -32.96957,-22.53092 0,-6.30453 3.514,-23.87452 L 974.34891,80.293199 q 1.757,-8.784993 1.757,-12.60905 0,-3.513997 -2.48047,-6.51123 13.74593,-5.167644 19.12028,-5.167644 6.40788,0 6.40788,7.338054 0,1.860352 -3.41065,18.190105 L 977.75956,172.1739 q -3.92741,19.53369 -3.92741,27.1818 0,12.91911 28.62875,12.91911 25.5281,0 52.6066,-10.43864 z"
         style="font-style:normal;font-variant:normal;font-weight:normal;font-stretch:normal;font-size:211.66667175px;font-family:'Lucida Handwriting';-inkscape-font-specification:'Lucida Handwriting';fill:#ffffff;fill-opacity:1;stroke-width:0.26458332"
         id="path23" />
      <path
         d="m 1102.8165,173.51749 -2.0671,3.9274 q -13.0224,24.28793 -13.0224,37.62045 0,3.92741 2.9972,7.64811 -2.4805,0.82682 -11.1621,4.03076 -4.0308,1.44694 -7.6481,1.44694 -7.2347,0 -7.2347,-6.92464 0,-14.36605 17.88,-43.82162 l 3.204,-5.27099 h -5.271 q -16.9499,0 -26.2516,5.27099 4.8575,-17.46663 26.1482,-17.46663 l 12.8158,0.31006 2.7905,-4.13412 q 16.2264,-24.39127 49.6094,-65.629067 11.2655,-13.952637 16.8465,-17.363282 5.5811,-3.410644 21.6008,-6.201172 -2.9973,18.603516 -2.9973,34.623211 0,42.47803 9.8185,86.09294 5.3744,23.97786 16.4332,30.90251 -9.7152,9.61181 -16.6399,9.61181 -16.3297,0 -25.2181,-56.01725 -17.0532,1.86035 -34.4165,1.86035 z m 7.4414,-12.19564 20.8773,0.51676 q 21.394,0 32.7628,-1.44694 -4.7542,-36.27686 -4.7542,-60.15137 l 0.1034,-7.751462 q -3.4107,4.34082 -15.2963,18.810222 -21.4974,26.35498 -31.5226,45.99203 z"
         style="font-style:normal;font-variant:normal;font-weight:normal;font-stretch:normal;font-size:211.66667175px;font-family:'Lucida Handwriting';-inkscape-font-specification:'Lucida Handwriting';fill:#ffffff;fill-opacity:1;stroke-width:0.26458332"
         id="path25" />
      <path
         d="m 1235.7283,188.29695 q 0,16.84651 9.1984,26.45833 9.3017,9.61182 25.6315,9.61182 14.4694,0 25.1147,-8.68164 10.6454,-8.68165 10.6454,-20.36052 0,-12.5057 -23.4611,-34.4165 l -11.3688,-10.542 q -21.8075,-20.25716 -21.8075,-37.31038 0,-19.843752 15.503,-32.659508 15.5029,-12.815755 39.4807,-12.815755 12.7124,0 20.5673,3.927409 7.8548,3.824056 7.8548,10.025228 0,6.097819 -5.5811,14.159342 -8.9917,-17.363281 -29.2488,-17.363281 -12.6091,0 -21.2907,7.854818 -8.5783,7.751465 -8.5783,19.223637 0,7.64811 2.7905,11.67887 2.8939,4.03076 17.6734,17.56999 l 9.3017,8.57829 q 25.4248,23.6678 25.4248,42.47802 0,21.91081 -17.3633,36.38021 -17.3632,14.36605 -43.7182,14.36605 -17.6734,0 -29.2489,-8.26823 -11.4722,-8.26823 -11.4722,-20.87728 0,-8.57829 13.9527,-19.01692 z"
         style="font-style:normal;font-variant:normal;font-weight:normal;font-stretch:normal;font-size:211.66667175px;font-family:'Lucida Handwriting';-inkscape-font-specification:'Lucida Handwriting';fill:#ffffff;fill-opacity:1;stroke-width:0.26458332"
         id="path27" />
      <path
         d="m 1431.9955,87.321194 -23.2544,116.685386 q -1.9637,9.71517 -1.9637,12.7124 0,2.89388 1.3435,6.20118 -10.6453,5.27099 -19.1202,5.27099 -5.3744,0 -5.3744,-4.34082 0,-2.17041 2.0671,-12.81575 l 24.598,-123.713386 h -14.3661 q -24.4946,0 -42.2713,4.650879 3.4106,-13.745931 9.1984,-17.156576 5.7878,-3.410644 25.3214,-3.410644 h 69.9699 q 28.2154,0 37.3104,-20.360515 3.6174,6.097819 3.6174,9.818522 0,13.435873 -16.6398,21.600749 -10.0253,4.857585 -38.0339,4.857585 z"
         style="font-style:normal;font-variant:normal;font-weight:normal;font-stretch:normal;font-size:211.66667175px;font-family:'Lucida Handwriting';-inkscape-font-specification:'Lucida Handwriting';fill:#ffffff;fill-opacity:1;stroke-width:0.26458332"
         id="path29" />
      <path
         d="m 1533.7979,147.88597 -5.2709,26.56169 q -3.3073,16.53646 -3.3073,23.4611 0,13.74593 26.665,13.74593 26.4583,0 46.6121,-9.40511 -4.6508,15.50293 -15.3995,19.12028 -6.5113,2.17041 -22.6343,4.44418 -16.1231,2.37711 -24.8047,2.37711 -33.7964,0 -33.7964,-22.42757 0,-5.99447 3.3073,-23.04769 l 6.9246,-34.82992 h -1.5502 q -10.4387,0 -20.2572,4.54753 5.6844,-11.16211 9.3017,-14.2627 3.7208,-3.10058 11.6789,-3.10058 h 3.4107 l 10.1285,-50.952965 h -2.9972 q -19.1203,0 -35.45,12.195639 5.1676,-16.536459 14.1593,-21.290691 7.028,-3.61735 43.3049,-3.61735 h 30.7991 q 29.1455,0 47.3356,-5.787761 -8.1648,12.919109 -14.5727,15.709636 -6.3045,2.790527 -27.4919,2.790527 h -33.383 l -10.2319,50.952965 h 21.3941 q 22.4275,0 35.7601,-5.68441 -7.028,13.12582 -12.5057,15.81299 -5.4777,2.68717 -25.7349,2.68717 z"
         style="font-style:normal;font-variant:normal;font-weight:normal;font-stretch:normal;font-size:211.66667175px;font-family:'Lucida Handwriting';-inkscape-font-specification:'Lucida Handwriting';fill:#ffffff;fill-opacity:1;stroke-width:0.26458332"
         id="path31" />
    </g>
  </g>
</svg>
