<?xml version="1.0" encoding="UTF-8" standalone="no"?>
<!-- Created with Inkscape (http://www.inkscape.org/) -->

<svg
   xmlns:dc="http://purl.org/dc/elements/1.1/"
   xmlns:cc="http://creativecommons.org/ns#"
   xmlns:rdf="http://www.w3.org/1999/02/22-rdf-syntax-ns#"
   xmlns:svg="http://www.w3.org/2000/svg"
   xmlns="http://www.w3.org/2000/svg"
   xmlns:sodipodi="http://sodipodi.sourceforge.net/DTD/sodipodi-0.dtd"
   xmlns:inkscape="http://www.inkscape.org/namespaces/inkscape"
   width="50.790092mm"
   height="56.356373mm"
   viewBox="0 0 179.96489 199.68793"
   id="svg2"
   version="1.1"
   inkscape:version="0.91 r13725"
   sodipodi:docname="slack.svg">
  <defs
     id="defs4" />
  <sodipodi:namedview
     id="base"
     pagecolor="#ffffff"
     bordercolor="#666666"
     borderopacity="1.0"
     inkscape:pageopacity="0.0"
     inkscape:pageshadow="2"
     inkscape:zoom="0.98994949"
     inkscape:cx="218.39079"
     inkscape:cy="-9.3519004"
     inkscape:document-units="px"
     inkscape:current-layer="g34683"
     showgrid="false"
     fit-margin-top="0"
     fit-margin-left="0"
     fit-margin-right="0"
     fit-margin-bottom="0"
     inkscape:window-width="1213"
     inkscape:window-height="1002"
     inkscape:window-x="59"
     inkscape:window-y="-8"
     inkscape:window-maximized="1" />
  <metadata
     id="metadata7">
    <rdf:RDF>
      <cc:Work
         rdf:about="">
        <dc:format>image/svg+xml</dc:format>
        <dc:type
           rdf:resource="http://purl.org/dc/dcmitype/StillImage" />
        <dc:title></dc:title>
      </cc:Work>
    </rdf:RDF>
  </metadata>
  <g
     inkscape:label="Layer 1"
     inkscape:groupmode="layer"
     id="layer1"
     transform="translate(-102.48023,-424.49651)">
    <g
       id="g34683"
       transform="translate(-50.507628,86.873115)">
      <path
         style="fill:#3fc07a;fill-opacity:1"
         d="m 198.84273,530.54016 c -4.60692,-5.05069 -5.73387,-9.1264 -6.20711,-22.4484 -0.51277,-14.43477 0.38908,-13.36383 -11.20012,-13.29981 -16.54609,0.0914 -23.22838,-4.37305 -24.92074,-16.64956 -1.8249,-13.23797 6.12114,-20.31801 22.73155,-20.25413 12.55101,0.0483 11.53796,1.97196 10.72548,-20.36694 -0.884,-24.3058 0.24657,-22.31518 -12.67254,-22.31275 -18.85484,0.004 -27.32472,-8.71455 -23.35121,-24.03558 2.69657,-10.39746 7.88573,-12.98709 25.71549,-12.83327 8.46826,0.073 7.99142,1.01233 7.49405,-14.76182 -0.55066,-17.4644 3.77732,-25.05138 14.77071,-25.89311 11.97539,-0.91695 18.65905,8.45239 19.30224,27.05838 0.21001,6.07484 0.67615,11.70708 1.0359,12.51608 0.57392,1.29068 34.14316,2.40377 36.26302,1.20242 0.27064,-0.15337 0.28317,-5.4937 0.0279,-11.86742 -0.76497,-19.09917 2.88497,-26.44496 14.02125,-28.21885 11.69654,-1.86315 18.37535,7.5475 19.31761,27.21911 0.68471,14.29478 -0.23197,13.29589 12.21078,13.30577 19.27432,0.0153 28.73546,9.9342 23.75166,24.90086 -2.95244,8.86632 -7.76306,11.18703 -22.97854,11.0851 -11.70208,-0.0784 -10.97519,-1.63434 -10.09354,21.60579 0.86793,22.87813 0.1164,21.54325 12.12971,21.54461 17.05113,0.002 23.58233,4.00347 25.59493,15.68154 2.40975,13.98243 -5.02114,20.69053 -22.86018,20.63668 -13.52651,-0.0409 -12.70341,-0.94829 -12.15956,13.4061 0.70826,18.69347 -2.9494,26.19023 -13.70511,28.09003 -11.25813,1.98855 -18.87857,-8.07849 -19.48158,-25.73633 -0.58599,-17.15905 1.43185,-15.51642 -19.00896,-15.47436 -9.59648,0.0198 -17.73093,0.19616 -18.07656,0.39206 -0.34564,0.19587 -0.46534,6.24023 -0.26601,13.43191 0.70827,25.55243 -14.23519,37.28789 -28.11052,22.0759 z m 44.67707,-72.51749 c 9.26723,0.0553 17.27957,-0.14302 17.8052,-0.4409 0.88278,-0.50028 -0.0155,-36.90775 -1.00762,-40.83797 -0.64588,-2.55874 -35.86204,-2.43462 -36.52685,0.12876 -0.82586,3.18433 0.93773,40.31914 1.93259,40.69323 0.52095,0.1959 8.52946,0.4015 17.79668,0.45688 z"
         id="path34699"
         inkscape:connector-curvature="0" />
    </g>
    <g
       id="g3347"
       transform="translate(65.714286,400)" />
  </g>
</svg>
